<?xml version="1.0" encoding="utf-8"?>
<!-- Generator: Adobe Illustrator 22.1.0, SVG Export Plug-In . SVG Version: 6.00 Build 0)  -->
<svg version="1.1" id="Capa_1" xmlns="http://www.w3.org/2000/svg" xmlns:xlink="http://www.w3.org/1999/xlink" x="0px" y="0px"
	 viewBox="0 0 962 568" style="enable-background:new 0 0 962 568;" xml:space="preserve">
<style type="text/css">
	.st0{display:none;fill-rule:evenodd;clip-rule:evenodd;fill:url(#SVGID_1_);}
	.st1{fill-rule:evenodd;clip-rule:evenodd;fill:url(#SVGID_2_);}
	.st2{opacity:0.2;}
	.st3{fill-rule:evenodd;clip-rule:evenodd;}
	.st4{fill:#FFFFFF;}
	.st5{fill-rule:evenodd;clip-rule:evenodd;fill:url(#SVGID_3_);}
	.st6{fill:url(#SVGID_4_);}
	.st7{fill-rule:evenodd;clip-rule:evenodd;fill:#B7B7B7;}
	.st8{fill:none;stroke:#000000;stroke-miterlimit:10;}
	.st9{fill:#CE2828;}
	.st10{fill:none;}
	.st11{fill:#2569CC;}
	.st12{fill:url(#SVGID_5_);}
	.st13{fill-rule:evenodd;clip-rule:evenodd;fill:#FFFFFF;}
	.st14{fill:url(#SVGID_6_);}
	.st15{fill:url(#SVGID_7_);}
	.st16{fill:url(#SVGID_8_);}
	.st17{fill:url(#SVGID_9_);}
	.st18{fill:none;stroke:url(#SVGID_10_);stroke-miterlimit:10;}
	.st19{fill:none;stroke:url(#SVGID_11_);stroke-miterlimit:10;}
	.st20{fill-rule:evenodd;clip-rule:evenodd;fill:#D6D6D6;}
	.st21{opacity:0.16;}
	.st22{fill:none;stroke:#FFFFFF;stroke-miterlimit:10;}
	.st23{fill-rule:evenodd;clip-rule:evenodd;fill:#FF0000;}
	.st24{fill-rule:evenodd;clip-rule:evenodd;fill:#7A0909;}
	.st25{fill-rule:evenodd;clip-rule:evenodd;fill:none;stroke:#000000;stroke-miterlimit:10;}
	.st26{fill-rule:evenodd;clip-rule:evenodd;fill:none;stroke:#26214D;stroke-miterlimit:10;}
	.st27{display:none;}
	.st28{display:inline;fill-rule:evenodd;clip-rule:evenodd;fill:#FFFFFF;}
	.st29{fill:none;stroke:#FFFFFF;stroke-width:3;stroke-miterlimit:10;}
</style>
<linearGradient id="SVGID_1_" gradientUnits="userSpaceOnUse" x1="-1185.1379" y1="235" x2="183.1379" y2="235">
	<stop  offset="0" style="stop-color:#540039"/>
	<stop  offset="1" style="stop-color:#963632"/>
</linearGradient>
<rect x="-1185.1" y="-149" class="st0" width="1368.3" height="768"/>
<linearGradient id="SVGID_2_" gradientUnits="userSpaceOnUse" x1="-3957.1379" y1="235" x2="-2588.8621" y2="235">
	<stop  offset="0" style="stop-color:#540039"/>
	<stop  offset="1" style="stop-color:#963632"/>
</linearGradient>
<rect x="-3957.1" y="-149" class="st1" width="1368.3" height="768"/>
<g class="st2">
	<path class="st3" d="M-376.2,240.3l-15.8-27.4l-15.8-27.4h0l-15.8-27.4l-15.8,27.4h0v0l-15.8,27.4h0l-15.8,27.4h-31.7l15.8-27.4h0
		l15.8-27.4l15.8-27.4h95.1l-15.8-27.4l-31.7-54.9v0l-15.8-27.4l-15.8,27.4l-15.8,27.4l-15.8,27.4h-95.1l-15.8,27.4v0h95.1
		l-15.8,27.4l-15.8,27.4v0l-15.8,27.4v0h-95.1l15.8,27.4l15.8,27.4l15.8,27.4v0l15.8,27.4l15.8-27.4l15.8-27.4v0l15.8-27.4h31.7
		l-15.8,27.4l-15.8,27.4l-15.8,27.4l-15.8,27.4l15.8,27.4h0l15.8-27.4h0v0l15.8-27.4l15.8-27.4h0v0l15.8-27.4l15.8-27.4h95.1
		L-376.2,240.3L-376.2,240.3z M-423.7,103.1L-423.7,103.1l15.8,27.4h-31.7L-423.7,103.1z M-566.3,295.2l-15.8-27.4h31.7
		L-566.3,295.2z M-439.5,240.3l15.8-27.4l15.8,27.4H-439.5z"/>
</g>
<g>
	<g>
		<path class="st4" d="M-4787.6,792.1l79.4,138h-79.4h-41.9h-1.7l-0.9,1.5l-63.2,110.3l-2.6,4.5h5.2h42.7h1.7l0.9-1.5l59.9-105.7
			l79.4,138h-121.3h-1.7l-0.9,1.5l-102.6,179.3l-17.8-30.8l83.7-145.6l2.6-4.5h-5.2h-42.7h-1.7l-0.9,1.5l-59.9,105.7l-79.4-138
			h121.3h1.7l0.9-1.5l63.2-110.3l2.6-4.5h-5.2h-84.6h-1.8l-0.9,1.5l-18,32.2l-17.8-30.7l19.6-33.8h124.8h1.7l0.9-1.5L-4787.6,792.1
			 M-4813.7,898.9h5.2h41.9h5.1l-2.5-4.5l-20.6-36.8l-2.6-4.6l-2.6,4.6l-21.3,36.8L-4813.7,898.9 M-4813.7,1046.8h5.2h41.9h5.1
			l-2.5-4.5l-20.6-36.8l-2.6-4.6l-2.6,4.6l-21.3,36.8L-4813.7,1046.8 M-4976.9,1123.4l2.6-4.7l20.6-36.8l2.5-4.5h-5.1h-41.2h-5.1
			l2.5,4.5l20.6,36.8L-4976.9,1123.4 M-4787.6,786l-62.5,110.3h-126.5l-21.3,36.8l21.3,36.8l20.6-36.8h84.6l-63.2,110.3h-126.5
			l84.6,147.1l62.5-110.3h42.7l-84.6,147.1l21.3,36.8l105.2-183.8h126.5l-84.6-147.1l-62.5,110.3h-42.7l63.2-110.3h41.9h84.6
			L-4787.6,786L-4787.6,786z M-4808.5,895.9l21.3-36.8l20.6,36.8H-4808.5L-4808.5,895.9z M-4808.5,1043.8l21.3-36.8l20.6,36.8
			H-4808.5L-4808.5,1043.8z M-4976.9,1117.3l-20.6-36.8h41.2L-4976.9,1117.3L-4976.9,1117.3z"/>
	</g>
</g>
<g>
	<g>
		<linearGradient id="SVGID_3_" gradientUnits="userSpaceOnUse" x1="-4465.0708" y1="858" x2="-4106.9385" y2="858">
			<stop  offset="0" style="stop-color:#683FFF"/>
			<stop  offset="1" style="stop-color:#FF1D25"/>
		</linearGradient>
		<path class="st5" d="M-4254,876.4h-42.7l63.2-110.3h41.9h84.6l-84.6-147.1l-62.5,110.3h-126.5l-21.3,36.8l21.3,36.8l20.6-36.8
			h84.6l-63.2,110.3h-126.5l84.6,147.1l62.5-110.3h42.7l-84.6,147.1l21.3,36.8l105.2-183.8h126.5l-84.6-147.1L-4254,876.4z
			 M-4191.1,692.2l20.6,36.8h-41.9L-4191.1,692.2z M-4380.9,950.3l-20.6-36.8h41.2L-4380.9,950.3z M-4170.5,876.8h-41.9l21.3-36.8
			L-4170.5,876.8z"/>
	</g>
</g>
<linearGradient id="SVGID_4_" gradientUnits="userSpaceOnUse" x1="-4913.769" y1="214.7636" x2="-4478" y2="214.7636">
	<stop  offset="0" style="stop-color:#683FFF"/>
	<stop  offset="1" style="stop-color:#FF1D25"/>
</linearGradient>
<path class="st6" d="M-4913.8,239.6c0,0,68.7,33.6,107,33c38.3-0.6,40.9-30.4,158.5-56.9c117.5-26.5,170.3-58.2,170.3-58.2
	l-306.4-0.5L-4913.8,239.6z"/>
<rect x="-4775" y="400" class="st7" width="89" height="12"/>
<path d="M-3043.6-421.1c-0.5,0-0.9,0-1.4,0c0,0,0,0,0,0H-3043.6z"/>
<path class="st8" d="M-3043.6-448.8h-1.4c0,0,0,0,0,0C-3044.6-448.8-3044.1-448.8-3043.6-448.8z"/>
<g>
	<path d="M-3054.7-485.9c-0.8,4.2-1.3,8.5-1.3,12.9s0.4,8.7,1.3,12.9c1.9,9.5,5.9,18.2,11.6,25.7c11.7,15.6,30.4,25.7,51.4,25.7
		h51.4c3.2,0,6.1,1.1,8.3,3c2.8,2.4,4.6,5.9,4.6,9.8v12.9h-64.3c-24.5,0-46.8-9.8-63-25.7c-7.5-7.4-13.8-16.1-18.4-25.7
		c-3.8-8-6.5-16.6-7.8-25.7c-0.6-4.2-0.9-8.5-0.9-12.9s0.3-8.7,0.9-12.9c1.3-9.1,4-17.7,7.8-25.7c4.6-9.6,10.8-18.3,18.4-25.7
		c16.2-15.9,38.5-25.7,63-25.7h64.3v12.9c0,3.9-1.8,7.5-4.6,9.8c-2.2,1.9-5.1,3-8.3,3h-51.4c-21,0-39.7,10.1-51.4,25.7
		C-3048.8-504.1-3052.8-495.4-3054.7-485.9z"/>
	<path d="M-2927.4-485.9c-0.4,0-0.9,0-1.3,0c0,0,0,0,0,0h-63c-7.1,0-12.9,5.8-12.9,12.9s5.8,12.9,12.9,12.9h63c0,0,0,0,0,0
		c0.4,0,0.9,0,1.3,0c8.6,0,16.7,2.1,23.8,5.8c0.7,0.3,1.3,0.7,1.9,1.1c7.8,4.5,14.3,11,18.8,18.8c4.4,7.6,6.9,16.3,6.9,25.7v25.7
		h-25.7v-25.7c0-8.7-4.4-16.5-11-21.1c-4.2-2.9-9.2-4.6-14.7-4.6h-64.3c-16.8,0-31.1-10.7-36.4-25.7c-1.4-4-2.2-8.4-2.2-12.9
		s0.8-8.8,2.2-12.9c5.3-15,19.6-25.7,36.4-25.7h64.3c5.5,0,10.5-1.7,14.7-4.6c6.7-4.6,11-12.4,11-21.1V-563h25.7v25.7
		c0,9.4-2.5,18.1-6.9,25.7c-4.5,7.8-11,14.3-18.8,18.8c-0.6,0.4-1.3,0.7-1.9,1.1C-2910.8-488-2918.9-485.9-2927.4-485.9z"/>
</g>
<path class="st9" d="M-3154.4-421.1c0,15.3-12.4,27.7-27.7,27.7s-27.7-12.4-27.7-27.7v-27.7h27.7v27.7H-3154.4z"/>
<line class="st10" x1="-3182.1" y1="-504.2" x2="-3182.1" y2="-507.6"/>
<path class="st9" d="M-3126.7-504.2v27.7h-27.7v-27.7h-27.7c0-15.3,12.4-27.7,27.7-27.7C-3139.1-531.8-3126.7-519.4-3126.7-504.2z"
	/>
<line class="st10" x1="-3126.7" y1="-504.2" x2="-3126.7" y2="-507.6"/>
<path class="st11" d="M-3182.1-504.2v27.7h-27.7v27.7c-15.3,0-27.7-12.4-27.7-27.7c0-15.3,12.4-27.7,27.7-27.7H-3182.1z"/>
<path class="st11" d="M-3099-448.8c0,15.3-12.4,27.7-27.7,27.7h-27.7v-27.7h27.7v-27.7C-3111.4-476.5-3099-464.1-3099-448.8z"/>
<linearGradient id="SVGID_5_" gradientUnits="userSpaceOnUse" x1="-3209.7913" y1="-462.6154" x2="-3126.7144" y2="-462.6154">
	<stop  offset="0" style="stop-color:#540039"/>
	<stop  offset="1" style="stop-color:#963632"/>
</linearGradient>
<polygon class="st12" points="-3126.7,-476.5 -3126.7,-448.8 -3154.4,-448.8 -3154.4,-421.1 -3182.1,-421.1 -3182.1,-448.8 
	-3209.8,-448.8 -3209.8,-476.5 -3182.1,-476.5 -3182.1,-504.2 -3154.4,-504.2 -3154.4,-476.5 "/>
<circle class="st9" cx="-2507" cy="995.6" r="72"/>
<g>
	<path class="st13" d="M-3706.8-502.5l-63.2,110.3h-126.5l84.6,147.1l62.5-110.3h169.1l-84.6,147.1l21.3,36.8l105.2-183.8l0,0
		l-84.6-147.1l-62.5,110.3h-42.7l63.2-110.3h41.9h84.6l-84.6-147.1l-62.5,110.3H-3812l-21.3,36.8H-3706.8z M-3622.6-576.4l20.6,36.8
		h-41.9L-3622.6-576.4z M-3812.4-318.3L-3833-355h41.2L-3812.4-318.3z M-3602-391.8h-41.9l21.3-36.8L-3602-391.8z"/>
</g>
<g>
	<path d="M-2696-473c0,44.7-36.3,81-81,81c-9.5,0-18.6-1.6-27-4.6v-14.5c8.3,3.6,17.4,5.6,27,5.6c37.3,0,67.5-30.2,67.5-67.5
		s-30.2-67.5-67.5-67.5V-554C-2732.3-554-2696-517.7-2696-473z"/>
	<path d="M-2777-527c-4.7,0-9.2,0.6-13.5,1.7v-27.6c-4.6,0.8-9.2,2-13.5,3.5v29.6c-16.1,9.3-27,26.8-27,46.8v60.4
		c4.1,3.7,8.7,7,13.5,9.8v-34.4c3.9,4.4,8.4,8.1,13.5,11.1c7.9,4.6,17.2,7.2,27,7.2c29.8,0,54-24.2,54-54S-2747.2-527-2777-527z
		 M-2777-432.5c-10.4,0-19.8-3.9-27-10.3c-8.3-7.4-13.5-18.2-13.5-30.2s5.2-22.8,13.5-30.2v30.2c0,14.9,12.1,27,27,27s27-12.1,27-27
		s-12.1-27-27-27c-4.9,0-9.5,1.3-13.5,3.6v-14.8c4.2-1.5,8.8-2.3,13.5-2.3c22.4,0,40.5,18.1,40.5,40.5S-2754.6-432.5-2777-432.5z
		 M-2790.5-473c0-7.5,6-13.5,13.5-13.5s13.5,6,13.5,13.5s-6,13.5-13.5,13.5S-2790.5-465.5-2790.5-473z"/>
</g>
<g>
	<linearGradient id="SVGID_6_" gradientUnits="userSpaceOnUse" x1="-2579" y1="-459.5" x2="-2507" y2="-459.5">
		<stop  offset="0" style="stop-color:#540039"/>
		<stop  offset="1" style="stop-color:#963632"/>
	</linearGradient>
	<path class="st14" d="M-2579-459.8V-491c0-9.9,8.1-18,18-18c7.2,0,13.4,4.2,16.3,10.3c1.1,2.3,1.7,5,1.7,7.7v36
		c0,13.3,7.2,25,18,31.2c5.3,3.1,11.4,4.8,18,4.8c-5.2,3.9-11.4,6.8-18,8.1c-2.9,0.6-5.9,0.9-9,0.9s-6.1-0.3-9-0.9
		c-18-3.6-32.1-18-35.3-36.1c-0.5-2.6-0.7-5.2-0.7-8V-459.8z"/>
	<linearGradient id="SVGID_7_" gradientUnits="userSpaceOnUse" x1="-2471" y1="-459.5" x2="-2435" y2="-459.5">
		<stop  offset="0" style="stop-color:#540039"/>
		<stop  offset="1" style="stop-color:#963632"/>
	</linearGradient>
	<path class="st15" d="M-2435-491v81h-36v-81c0-9.9,8.1-18,18-18S-2435-500.9-2435-491z"/>
	<linearGradient id="SVGID_8_" gradientUnits="userSpaceOnUse" x1="-2633" y1="-473" x2="-2561" y2="-473">
		<stop  offset="0" style="stop-color:#540039"/>
		<stop  offset="1" style="stop-color:#963632"/>
	</linearGradient>
	<path class="st16" d="M-2561-527c-19.9,0-36,16.1-36,36v81h-36v-81c0-24.9,20.1-45,45-45C-2577.9-536-2568.5-532.7-2561-527z"/>
	<linearGradient id="SVGID_9_" gradientUnits="userSpaceOnUse" x1="-2525" y1="-486.5" x2="-2453" y2="-486.5">
		<stop  offset="0" style="stop-color:#540039"/>
		<stop  offset="1" style="stop-color:#963632"/>
	</linearGradient>
	<path class="st17" d="M-2525-486.2v31.2c0,9.9,8.1,18,18,18c7.2,0,13.4-4.2,16.3-10.3c1.1-2.3,1.7-4.9,1.7-7.7v-36
		c0-19.9,16.1-36,36-36c-7.5-5.7-16.9-9-27-9c-22.1,0-40.5,16-44.3,37c-0.5,2.6-0.7,5.2-0.7,8V-486.2z"/>
</g>
<linearGradient id="SVGID_10_" gradientUnits="userSpaceOnUse" x1="-3860.4348" y1="337" x2="-3634.5652" y2="337">
	<stop  offset="0" style="stop-color:#683FFF"/>
	<stop  offset="1" style="stop-color:#FF1D25"/>
</linearGradient>
<line class="st18" x1="-3635" y1="139" x2="-3860" y2="535"/>
<linearGradient id="SVGID_11_" gradientUnits="userSpaceOnUse" x1="-3824.5918" y1="337" x2="-3598.7224" y2="337">
	<stop  offset="0" style="stop-color:#683FFF"/>
	<stop  offset="1" style="stop-color:#FF1D25"/>
</linearGradient>
<line class="st19" x1="-3599.2" y1="139" x2="-3824.2" y2="535"/>
<g>
	<g>
		<g>
			<path class="st13" d="M-3786.8,988.8l-63.2,110.3h-126.5l84.6,147.1l62.5-110.3h42.7l-84.6,147.1l21.3,36.8l105.2-183.8h126.5
				l-84.6-147.1l-62.5,110.3h-42.7l63.2-110.3h41.9h84.6l-84.6-147.1l-62.5,110.3H-3892l-21.3,36.8H-3786.8z M-3702.6,914.9
				l20.6,36.8h-41.9L-3702.6,914.9z M-3892.3,1173.1l-20.6-36.8h41.2L-3892.3,1173.1z M-3682,1099.5h-41.9l21.3-36.8L-3682,1099.5z"
				/>
		</g>
	</g>
	<polygon class="st20" points="-3829.5,1135.9 -3808.1,1099.2 -3790.8,1099.2 -3812.1,1135.9 	"/>
	<polygon class="st20" points="-3744.9,1135.9 -3786.8,1135.9 -3794.5,1149.4 -3752.6,1149.4 	"/>
	<polygon class="st20" points="-3744.9,988.8 -3786.8,988.8 -3794.5,1002.3 -3752.6,1002.3 	"/>
</g>
<g>
	<g>
		<g>
			<path class="st13" d="M-2988.8,823l-63.2,110.3h-126.5l84.6,147.1l62.5-110.3h169.1l-84.6,147.1l21.3,36.8l105.2-183.8l0,0
				l-84.6-147.1l-62.5,110.3h-42.7l63.2-110.3h41.9h84.6l-84.6-147.1l-62.5,110.3h-126.5l-21.3,36.8H-2988.8z M-2904.6,749.1
				l20.6,36.8h-41.9L-2904.6,749.1z M-3094.3,1007.2l-20.6-36.8h41.2L-3094.3,1007.2z M-2884,933.7h-41.9l21.3-36.8L-2884,933.7z"/>
		</g>
	</g>
	<polygon class="st20" points="-3031.4,970.1 -3010.1,933.3 -2992.8,933.3 -3014.1,970.1 	"/>
	<polygon class="st20" points="-2820.4,970.1 -2862.3,970.1 -2870,983.5 -2828.1,983.5 	"/>
	<polygon class="st20" points="-2988.8,823 -2946.9,823 -2952.7,833.3 -2994.7,833.3 	"/>
</g>
<g>
	<path class="st4" d="M-3986,793.6l0.4-0.4c1.2,1.8,2.9,2.8,4.9,2.8c3.1,0,4.6-1.8,4.6-5.5v-14.8h-8v-0.6h8.6v15.5c0,4-1.8,6-5.3,6
		C-3982.8,796.7-3984.8,795.5-3986,793.6z"/>
	<path class="st4" d="M-3937,787.6v-12.4h0.6v12.4c0,5.7,2.8,8.5,7.6,8.5c4.9,0,7.6-2.8,7.6-8.5v-12.4h0.6v12.4
		c0,6.1-3.1,9.1-8.3,9.1S-3937,793.7-3937,787.6z"/>
	<path class="st4" d="M-3869.5,790.1h-13.1l-3,6.5h-0.7l9.9-21.4h0.6l9.9,21.4h-0.7L-3869.5,790.1z M-3869.7,789.5l-6.3-13.5
		l-6.3,13.5H-3869.7z"/>
	<path class="st4" d="M-3814,775.2v21.4h-0.5l-15.7-20.3v20.3h-0.6v-21.4h0.5l15.7,20.3v-20.3H-3814z"/>
	<path class="st4" d="M-3777.1,785.5h7.6v0.6h-7.6V785.5z"/>
	<path class="st4" d="M-3716.9,782.2c0,4.4-3.2,7-8.4,7h-6.6v7.3h-0.6v-21.4h7.2C-3720,775.2-3716.9,777.8-3716.9,782.2z
		 M-3717.5,782.2c0-4.1-2.7-6.5-7.7-6.5h-6.7v12.9h6.7C-3720.2,788.7-3717.5,786.3-3717.5,782.2z"/>
	<path class="st4" d="M-3668.6,790.1h-13.1l-3,6.5h-0.7l9.9-21.4h0.6l9.9,21.4h-0.7L-3668.6,790.1z M-3668.9,789.5l-6.3-13.5
		l-6.3,13.5H-3668.9z"/>
	<path class="st4" d="M-3613.2,791c0,3.6-2.5,5.6-7.7,5.6h-9.1v-21.4h8.5c4.4,0,7.2,1.8,7.2,5.4c0,2.8-1.7,4.4-4.2,5
		C-3615,786.1-3613.2,787.9-3613.2,791z M-3629.4,775.8v9.7h8c4.1,0,6.5-1.7,6.5-4.8c0-3.2-2.4-4.8-6.5-4.8H-3629.4z M-3613.8,791
		c0-3.5-2.4-5-7-5h-8.6v10h8.6C-3616.3,796-3613.8,794.4-3613.8,791z"/>
	<path class="st4" d="M-3576.6,775.2h0.6V796h12.8v0.6h-13.4V775.2z"/>
	<path class="st4" d="M-3531,785.9c0-6.2,4.7-10.8,11-10.8s11,4.6,11,10.8s-4.7,10.8-11,10.8S-3531,792.1-3531,785.9z
		 M-3509.7,785.9c0-5.8-4.5-10.2-10.4-10.2c-5.9,0-10.4,4.4-10.4,10.2c0,5.8,4.5,10.2,10.4,10.2
		C-3514.1,796.1-3509.7,791.7-3509.7,785.9z"/>
</g>
<g>
	<path class="st4" d="M-2157.2,485.8c0,5.8-4.2,9.2-11.1,9.2h-7.9v9h-2v-27.5h9.9C-2161.4,476.5-2157.2,480-2157.2,485.8z
		 M-2159.3,485.8c0-4.8-3.1-7.5-9-7.5h-7.9v14.9h7.9C-2162.4,493.2-2159.3,490.5-2159.3,485.8z"/>
	<path class="st4" d="M-2107.3,496.3h-16l-3.5,7.7h-2.2l12.7-27.5h2l12.7,27.5h-2.2L-2107.3,496.3z M-2108,494.6l-7.2-15.9
		l-7.2,15.9H-2108z"/>
	<path class="st4" d="M-2046.7,496.8c0,4.6-3.4,7.3-10.1,7.3h-12.3v-27.5h11.5c5.9,0,9.5,2.5,9.5,7c0,3.3-1.8,5.4-4.6,6.3
		C-2048.8,490.6-2046.7,493-2046.7,496.8z M-2067.1,478.3v11h9.4c4.8,0,7.5-1.8,7.5-5.5c0-3.6-2.8-5.5-7.5-5.5H-2067.1z
		 M-2048.7,496.6c0-3.9-2.9-5.7-8.1-5.7h-10.3v11.4h10.3C-2051.5,502.3-2048.7,500.6-2048.7,496.6z"/>
	<path class="st4" d="M-2012,476.5h2v25.7h15.8v1.8h-17.8V476.5z"/>
	<path class="st4" d="M-1964.7,490.3c0-8,6.1-14,14.3-14c8.2,0,14.3,5.9,14.3,14c0,8-6.1,14-14.3,14
		C-1958.6,504.2-1964.7,498.3-1964.7,490.3z M-1938.1,490.3c0-7-5.3-12.1-12.3-12.1c-7,0-12.3,5.1-12.3,12.1c0,7,5.3,12.1,12.3,12.1
		C-1943.4,502.4-1938.1,497.2-1938.1,490.3z"/>
	<path class="st4" d="M-1901.6,474.9h1.8v36.8h-1.8V474.9z"/>
	<path class="st4" d="M-1843,490.4h1.9v10.3c-2.5,2.4-6.1,3.5-9.8,3.5c-8.3,0-14.4-5.9-14.4-14c0-8,6.1-14,14.4-14
		c4,0,7.5,1.3,9.9,3.8l-1.3,1.3c-2.4-2.4-5.3-3.3-8.6-3.3c-7.2,0-12.5,5.2-12.5,12.1c0,6.9,5.3,12.1,12.5,12.1
		c2.9,0,5.6-0.7,7.8-2.5V490.4z"/>
	<path class="st4" d="M-1787.7,496.3h-16l-3.5,7.7h-2.2l12.7-27.5h2l12.7,27.5h-2.2L-1787.7,496.3z M-1788.4,494.6l-7.2-15.9
		l-7.2,15.9H-1788.4z"/>
	<path class="st4" d="M-1749.5,476.5h2v25.7h15.8v1.8h-17.8V476.5z"/>
	<path class="st4" d="M-1699,476.5h2v25.7h15.8v1.8h-17.8V476.5z"/>
	<path class="st4" d="M-1629.5,502.2v1.8h-19v-27.5h18.4v1.8h-16.4v10.9h14.7v1.8h-14.7v11.3H-1629.5z"/>
	<path class="st4" d="M-1575.1,490.4h1.9v10.3c-2.5,2.4-6.1,3.5-9.8,3.5c-8.3,0-14.4-5.9-14.4-14c0-8,6.1-14,14.4-14
		c4,0,7.5,1.3,9.9,3.8l-1.3,1.3c-2.4-2.4-5.3-3.3-8.6-3.3c-7.2,0-12.5,5.2-12.5,12.1c0,6.9,5.3,12.1,12.5,12.1
		c2.9,0,5.6-0.7,7.8-2.5V490.4z"/>
	<path class="st4" d="M-1539.5,490.3c0-8,6.1-14,14.3-14c8.2,0,14.3,5.9,14.3,14c0,8-6.1,14-14.3,14
		C-1533.4,504.2-1539.5,498.3-1539.5,490.3z M-1513,490.3c0-7-5.3-12.1-12.3-12.1c-7,0-12.3,5.1-12.3,12.1c0,7,5.3,12.1,12.3,12.1
		C-1518.2,502.4-1513,497.2-1513,490.3z"/>
</g>
<text transform="matrix(1 0 0 1 -3484.9226 1676.179)" class="st4" style="font-family:'Montserrat-Light'; font-size:74px; letter-spacing:51;">pablo|gallego</text>
<g>
	<g>
		<path class="st13" d="M-3119.3,251.5l-20.8-36.1l-20.9-36.1h0l-20.8-36.1l-20.8,36.1h0v0l-20.8,36.1h0l-20.8,36.1h-41.7l20.8-36.1
			h0l20.9-36.1l20.8-36.1h125.1l-20.9-36.1l-41.7-72.2v0l-20.9-36.1l-20.9,36.1l-20.9,36.1l-20.9,36.1h-125.1l-20.9,36.1v0h125.1
			l-20.9,36.1l-20.9,36.1v0l-20.8,36.1v0H-3453l20.9,36.1l20.9,36.1l20.9,36.1v0l20.9,36.1l20.9-36.1l20.9-36.1v0l20.9-36.1h41.7
			l-20.8,36.1l-20.9,36.1l-20.9,36.1l-20.9,36.1l20.8,36.1h0l20.8-36.1h0v0l20.8-36.1l20.9-36.1h0v0l20.8-36.1l20.9-36.1h125.1
			L-3119.3,251.5L-3119.3,251.5z M-3181.9,70.9L-3181.9,70.9l20.9,36.1h-41.7L-3181.9,70.9z M-3369.5,323.7l-20.9-36.1h41.7
			L-3369.5,323.7z M-3202.7,251.5l20.9-36.1l20.9,36.1H-3202.7z"/>
	</g>
	<polygon class="st20" points="-3288.9,287.6 -3268,251.5 -3286.1,251.5 -3307,287.6 	"/>
	<polygon class="st20" points="-3265.3,287.6 -3223.6,287.6 -3232.6,303.3 -3274.4,303.3 	"/>
	<polygon class="st20" points="-3265.3,143.1 -3223.6,143.1 -3232.6,158.8 -3274.3,158.8 	"/>
</g>
<g>
	<g>
		<path class="st13" d="M-3872.9,56.5h78.7l-13.1,22.7l-13.1,22.7v0l-13.1,22.7v0h-65.6c-5.8,0-9.5,6.3-6.6,11.4l6.6,11.4l13.1,22.7
			l13.1,22.7v0l6.6,11.4c2.9,5,10.2,5,13.1,0l6.6-11.4l13.1-22.7v0l13.1-22.7h26.2l-13.1,22.7l-13.1,22.7l-13.1,22.7l-10.9,18.9
			c-1.4,2.3-1.4,5.2,0,7.6l10.9,18.9h0l13.1-22.7h0v0l13.1-22.7l13.1-22.7h0v0l13.1-22.7l13.1-22.7h65.6c5.8,0,9.5-6.3,6.6-11.3
			l-6.6-11.4h0l-13.1-22.7l-13.1-22.7h0l-6.5-11.3c-2.9-5-10.2-5-13.1,0l-6.5,11.3h0v0l-13.1,22.7h0l-13.1,22.7h-26.2l13.1-22.7h0
			l13.1-22.7l13.1-22.7h65.6c5.8,0,9.5-6.3,6.6-11.4l-6.6-11.4l-26.2-45.4v0l-6.6-11.4c-2.9-5-10.2-5-13.1,0l-6.6,11.4l-13.1,22.7
			l-13.1,22.7h-74.3c-2.7,0-5.2,1.4-6.6,3.8L-3872.9,56.5z M-3735.2,22.4L-3735.2,22.4c2.9,5-0.7,11.3-6.6,11.3h-13.1l6.6-11.4
			C-3745.4,17.4-3738.2,17.4-3735.2,22.4z M-3866.4,158.7L-3866.4,158.7c-2.9-5,0.7-11.4,6.6-11.4h13.1l-6.5,11.3
			C-3856.2,163.7-3863.4,163.7-3866.4,158.7z M-3754.9,124.6l6.6-11.4c2.9-5,10.2-5,13.1,0l0,0c2.9,5-0.7,11.4-6.6,11.4H-3754.9z"/>
	</g>
	<polygon class="st20" points="-3809.1,147.3 -3796,124.6 -3807.3,124.6 -3820.5,147.3 	"/>
	<polygon class="st20" points="-3794.3,147.3 -3768,147.3 -3773.7,157.2 -3800,157.2 	"/>
	<polygon class="st20" points="-3794.3,56.5 -3768,56.5 -3773.7,66.3 -3799.9,66.3 	"/>
</g>
<g class="st21">
	<rect x="-3368.3" y="468.2" class="st22" width="869.6" height="36.1"/>
	<rect x="-3368.3" y="432.1" class="st22" width="869.6" height="36.1"/>
	<rect x="-3368.3" y="396" class="st22" width="869.6" height="36.1"/>
	<rect x="-3368.3" y="359.8" class="st22" width="869.6" height="36.1"/>
	<rect x="-3368.3" y="323.7" class="st22" width="869.6" height="36.1"/>
	<rect x="-3368.3" y="287.6" class="st22" width="869.6" height="36.1"/>
	<rect x="-3368.3" y="251.5" class="st22" width="869.6" height="36.1"/>
	<rect x="-3368.3" y="215.4" class="st22" width="869.6" height="36.1"/>
	<rect x="-3368.3" y="179.2" class="st22" width="869.6" height="36.1"/>
	<rect x="-3368.3" y="143.1" class="st22" width="869.6" height="36.1"/>
	<rect x="-3368.3" y="107" class="st22" width="869.6" height="36.1"/>
	<rect x="-3056.1" y="107" class="st22" width="245.4" height="397.3"/>
	<rect x="-3301.5" y="107" class="st22" width="245.4" height="397.3"/>
	<rect x="-2810.7" y="107" class="st22" width="245.4" height="397.3"/>
</g>
<g>
	<line class="st8" x1="-2498.7" y1="367" x2="-1264" y2="367"/>
</g>
<g>
	<line class="st8" x1="-2498.7" y1="339.6" x2="-1264" y2="339.6"/>
</g>
<g>
	<line class="st8" x1="-2498.7" y1="312.1" x2="-1264" y2="312.1"/>
</g>
<g>
	<line class="st8" x1="-2498.7" y1="284.7" x2="-1264" y2="284.7"/>
</g>
<g>
	<line class="st8" x1="-2498.7" y1="257.2" x2="-1264" y2="257.2"/>
</g>
<g>
	<line class="st8" x1="-2498.7" y1="229.8" x2="-1264" y2="229.8"/>
</g>
<g>
	<line class="st8" x1="-2498.7" y1="202.3" x2="-1264" y2="202.3"/>
</g>
<g>
	<line class="st8" x1="-2498.7" y1="174.9" x2="-1264" y2="174.9"/>
</g>
<g>
	<line class="st8" x1="-2498.7" y1="147.5" x2="-1264" y2="147.5"/>
</g>
<g>
	<line class="st8" x1="-2498.7" y1="120" x2="-1264" y2="120"/>
</g>
<g>
	<line class="st8" x1="-2498.7" y1="92.6" x2="-1264" y2="92.6"/>
</g>
<g>
	<line class="st8" x1="-2498.7" y1="65.1" x2="-1264" y2="65.1"/>
</g>
<g>
	<line class="st8" x1="-2498.7" y1="37.7" x2="-1264" y2="37.7"/>
</g>
<g>
	<g>
		<path class="st23" d="M-1797.2,229.8l-15.8-27.4l-15.8-27.4h0l-15.8-27.4l-15.8,27.4h0v0l-15.8,27.4h0l-15.8,27.4h-31.7l15.8-27.4
			h0l15.8-27.4l15.8-27.4h95.1l-15.8-27.4l-31.7-54.9v0l-15.8-27.4l-15.8,27.4l-15.8,27.4l-15.8,27.4h-95.1l-15.8,27.4v0h95.1
			l-15.8,27.4l-15.8,27.4v0l-15.8,27.4v0h-95.1l15.8,27.4l15.8,27.4l15.8,27.4v0l15.8,27.4l15.8-27.4l15.8-27.4v0l15.8-27.4h31.7
			l-15.8,27.4l-15.8,27.4l-15.8,27.4l-15.8,27.4l15.8,27.4h0l15.8-27.4h0v0l15.8-27.4l15.8-27.4h0v0l15.8-27.4l15.8-27.4h95.1
			L-1797.2,229.8L-1797.2,229.8z M-1844.7,92.6L-1844.7,92.6l15.8,27.4h-31.7L-1844.7,92.6z M-1987.3,284.7l-15.8-27.4h31.7
			L-1987.3,284.7z M-1860.5,229.8l15.8-27.4l15.8,27.4H-1860.5z"/>
	</g>
	<polygon class="st24" points="-1971.4,257.2 -1939.7,257.2 -1946.6,269.1 -1978.3,269.1 	"/>
	<polygon class="st24" points="-1908.1,257.2 -1876.4,257.2 -1883.3,269.1 -1915,269.1 	"/>
	<polygon class="st24" points="-1908.1,147.4 -1876.4,147.4 -1883.2,159.4 -1914.9,159.4 	"/>
</g>
<g>
	<g>
		<path class="st23" d="M-1527.8,229.8l-15.8-27.4l-15.8-27.4h0l-15.8-27.4l-15.8,27.4h0v0l-15.8,27.4h0l-15.8,27.4h-31.7l15.8-27.4
			h0l15.8-27.4l15.8-27.4h95.1l-15.8-27.4l-31.7-54.9v0l-15.8-27.4l-15.8,27.4l-15.8,27.4l-15.8,27.4h-95.1l-15.8,27.4v0h95.1
			l-15.8,27.4l-15.8,27.4v0l-15.8,27.4v0h-95.1l15.8,27.4l15.8,27.4l15.8,27.4v0l15.8,27.4l15.8-27.4l15.8-27.4v0l15.8-27.4h31.7
			l-15.8,27.4l-15.8,27.4l-15.8,27.4l-15.8,27.4l15.8,27.4h0l15.8-27.4h0v0l15.8-27.4l15.8-27.4h0v0l15.8-27.4l15.8-27.4h95.1
			L-1527.8,229.8L-1527.8,229.8z M-1575.3,92.6L-1575.3,92.6l15.8,27.4h-31.7L-1575.3,92.6z M-1717.9,284.7l-15.8-27.4h31.7
			L-1717.9,284.7z M-1591.2,229.8l15.8-27.4l15.8,27.4H-1591.2z"/>
	</g>
	<polygon class="st24" points="-1702.1,257.2 -1670.4,257.2 -1677.3,269.1 -1709,269.1 	"/>
	<polygon class="st24" points="-1638.7,257.2 -1607,257.2 -1613.9,269.1 -1645.6,269.1 	"/>
	<polygon class="st24" points="-1638.7,147.4 -1607,147.4 -1613.9,159.4 -1645.6,159.4 	"/>
</g>
<g>
	<g>
		<path class="st23" d="M-2066.5,229.8l-15.8-27.4l-15.8-27.4h0l-15.8-27.4l-15.8,27.4h0v0l-15.8,27.4h0l-15.8,27.4h-31.7l15.8-27.4
			h0l15.8-27.4l15.8-27.4h95.1l-15.8-27.4l-31.7-54.9v0l-15.8-27.4l-15.8,27.4l-15.8,27.4l-15.8,27.4h-95.1l-15.8,27.4v0h95.1
			l-15.8,27.4l-15.8,27.4v0l-15.8,27.4v0h-95.1l15.8,27.4l15.8,27.4l15.8,27.4v0l15.8,27.4l15.8-27.4l15.8-27.4v0l15.8-27.4h31.7
			l-15.8,27.4l-15.8,27.4l-15.8,27.4l-15.8,27.4l15.8,27.4h0l15.8-27.4h0v0l15.8-27.4l15.8-27.4h0v0l15.8-27.4l15.8-27.4h95.1
			L-2066.5,229.8L-2066.5,229.8z M-2114,92.6L-2114,92.6l15.8,27.4h-31.7L-2114,92.6z M-2256.6,284.7l-15.8-27.4h31.7L-2256.6,284.7
			z M-2129.9,229.8l15.8-27.4l15.8,27.4H-2129.9z"/>
	</g>
	<polygon class="st24" points="-2240.8,257.2 -2209.1,257.2 -2216,269.1 -2247.7,269.1 	"/>
	<polygon class="st24" points="-2177.4,257.2 -2145.7,257.2 -2152.6,269.1 -2184.3,269.1 	"/>
	<polygon class="st24" points="-2177.4,147.4 -2145.7,147.4 -2152.6,159.4 -2184.3,159.4 	"/>
</g>
<rect x="-2498.7" y="339.6" class="st25" width="1234.7" height="27.4"/>
<rect x="-2498.7" y="367" class="st25" width="1234.7" height="27.4"/>
<rect x="-2498.7" y="394.4" class="st25" width="1234.7" height="27.4"/>
<rect x="-2498.7" y="421.9" class="st25" width="1234.7" height="27.4"/>
<rect x="-2498.7" y="449.3" class="st25" width="1234.7" height="27.4"/>
<rect x="-2498.7" y="476.8" class="st25" width="1234.7" height="27.4"/>
<rect x="-2498.7" y="504.2" class="st25" width="1234.7" height="27.4"/>
<rect x="-2319" y="229.8" class="st26" width="808.1" height="301.9"/>
<g>
	<path class="st4" d="M-883.3,452.3c0,7.1-5.1,11.3-13.6,11.3h-9.6v11h-2.5V441h12.1C-888.4,441-883.3,445.2-883.3,452.3z
		 M-885.8,452.3c0-5.8-3.8-9.1-11.1-9.1h-9.6v18.2h9.6C-889.7,461.4-885.8,458.1-885.8,452.3z"/>
	<path class="st4" d="M-822.3,465.1h-19.5l-4.3,9.5h-2.6l15.5-33.6h2.5l15.5,33.6h-2.6L-822.3,465.1z M-823.2,463.1l-8.8-19.4
		l-8.8,19.4H-823.2z"/>
	<path class="st4" d="M-748.2,465.7c0,5.7-4.1,8.9-12.4,8.9h-15V441h14c7.2,0,11.6,3,11.6,8.6c0,4-2.3,6.6-5.6,7.7
		C-750.8,458.2-748.2,461.1-748.2,465.7z M-773.1,443.1v13.4h11.5c5.8,0,9.2-2.3,9.2-6.7c0-4.4-3.4-6.7-9.2-6.7H-773.1z
		 M-750.6,465.5c0-4.8-3.5-6.9-10-6.9h-12.5v13.9h12.5C-754.1,472.5-750.6,470.4-750.6,465.5z"/>
	<path class="st4" d="M-705.8,441h2.5v31.4h19.4v2.2h-21.8V441z"/>
	<path class="st4" d="M-647.9,457.8c0-9.8,7.5-17.1,17.5-17.1c10,0,17.5,7.3,17.5,17.1c0,9.8-7.5,17.1-17.5,17.1
		C-640.4,474.9-647.9,467.5-647.9,457.8z M-615.4,457.8c0-8.5-6.4-14.8-15-14.8c-8.6,0-15,6.3-15,14.8c0,8.5,6.4,14.8,15,14.8
		C-621.8,472.6-615.4,466.3-615.4,457.8z"/>
	<path class="st4" d="M-570.7,438.9h2.3v45h-2.3V438.9z"/>
	<path class="st4" d="M-499.1,457.9h2.4v12.6c-3,2.9-7.4,4.3-12,4.3c-10.1,0-17.6-7.3-17.6-17.1c0-9.8,7.5-17.1,17.6-17.1
		c4.9,0,9.1,1.5,12.1,4.6l-1.5,1.6c-2.9-2.9-6.4-4-10.5-4c-8.7,0-15.2,6.3-15.2,14.8c0,8.4,6.5,14.8,15.2,14.8
		c3.6,0,6.8-0.9,9.6-3.1V457.9z"/>
	<path class="st4" d="M-431.5,465.1H-451l-4.3,9.5h-2.6l15.5-33.6h2.5l15.5,33.6h-2.6L-431.5,465.1z M-432.4,463.1l-8.8-19.4
		l-8.8,19.4H-432.4z"/>
	<path class="st4" d="M-384.8,441h2.5v31.4h19.4v2.2h-21.8V441z"/>
	<path class="st4" d="M-323,441h2.5v31.4h19.4v2.2H-323V441z"/>
	<path class="st4" d="M-238,472.4v2.2h-23.2V441h22.5v2.2h-20v13.3h17.9v2.2h-17.9v13.8H-238z"/>
	<path class="st4" d="M-171.6,457.9h2.4v12.6c-3,2.9-7.4,4.3-12,4.3c-10.1,0-17.6-7.3-17.6-17.1c0-9.8,7.5-17.1,17.6-17.1
		c4.9,0,9.1,1.5,12.1,4.6l-1.5,1.6c-2.9-2.9-6.4-4-10.5-4c-8.7,0-15.2,6.3-15.2,14.8c0,8.4,6.5,14.8,15.2,14.8
		c3.6,0,6.8-0.9,9.6-3.1V457.9z"/>
	<path class="st4" d="M-128.1,457.8c0-9.8,7.5-17.1,17.5-17.1c10,0,17.5,7.3,17.5,17.1c0,9.8-7.5,17.1-17.5,17.1
		C-120.6,474.9-128.1,467.5-128.1,457.8z M-95.6,457.8c0-8.5-6.4-14.8-15-14.8c-8.6,0-15,6.3-15,14.8c0,8.5,6.4,14.8,15,14.8
		C-102,472.6-95.6,466.3-95.6,457.8z"/>
</g>
<g class="st27">
	<path class="st28" d="M-382.2,229.8l-15.8-27.4l-15.8-27.4h0l-15.8-27.4l-15.8,27.4h0v0l-15.8,27.4h0l-15.8,27.4h-31.7l15.8-27.4h0
		l15.8-27.4l15.8-27.4h95.1l-15.8-27.4l-31.7-54.9v0l-15.8-27.4l-15.8,27.4l-15.8,27.4l-15.8,27.4h-95.1l-15.8,27.4v0h95.1
		l-15.8,27.4l-15.8,27.4v0l-15.8,27.4v0h-95.1l15.8,27.4l15.8,27.4l15.8,27.4v0l15.8,27.4l15.8-27.4l15.8-27.4v0l15.8-27.4h31.7
		l-15.8,27.4l-15.8,27.4l-15.8,27.4l-15.8,27.4l15.8,27.4h0l15.8-27.4h0v0l15.8-27.4l15.8-27.4h0v0l15.8-27.4l15.8-27.4h95.1
		L-382.2,229.8L-382.2,229.8z M-429.7,92.6L-429.7,92.6l15.8,27.4h-31.7L-429.7,92.6z M-572.3,284.7l-15.8-27.4h31.7L-572.3,284.7z
		 M-445.5,229.8l15.8-27.4l15.8,27.4H-445.5z"/>
</g>
<path class="st13" d="M-477.2,229.8h-31.7l47.5-82.3l95.1,0l-63.4-109.8l-47.5,82.3h-95.1l-15.8,27.4l95.1,0l-47.5,82.3l-95.1,0
	l63.4,109.8l47.5-82.3l31.7,0L-556.5,367l15.8,27.4l79.2-137.2l95.1,0l-63.4-109.8L-477.2,229.8z M-429.7,92.6l15.8,27.4h-31.7
	L-429.7,92.6z M-572.3,284.7l-15.8-27.4h31.7L-572.3,284.7z M-445.5,229.8l15.8-27.4l15.8,27.4H-445.5z"/>
<polygon class="st20" points="-556.5,257.2 -524.8,257.2 -531.6,269.1 -563.3,269.1 "/>
<polygon class="st20" points="-493.1,257.2 -461.4,257.2 -468.3,269.1 -500,269.1 "/>
<polygon class="st20" points="-493.1,147.4 -461.4,147.4 -468.3,159.4 -500,159.4 "/>
<g>
	<path class="st4" d="M-807,519h6.4c5.2,0,8.6,3.4,8.6,8.1c0,4.7-3.5,8.1-8.6,8.1h-6.4V519z M-800.6,534.2c4.6,0,7.5-2.9,7.5-7.1
		c0-4.1-2.9-7.1-7.5-7.1h-5.2v14.1H-800.6z"/>
	<path class="st4" d="M-783.1,519h1.2v16.3h-1.2V519z"/>
	<path class="st4" d="M-773.3,533.2l0.5-0.9c1.1,1.2,3.2,2,5.4,2c3.3,0,4.7-1.4,4.7-3.2c0-4.9-10.2-2-10.2-7.9
		c0-2.3,1.8-4.3,5.8-4.3c1.8,0,3.6,0.6,4.9,1.5l-0.4,1c-1.3-0.9-3-1.4-4.5-1.4c-3.2,0-4.6,1.5-4.6,3.3c0,4.9,10.2,2,10.2,7.9
		c0,2.3-1.8,4.3-5.9,4.3C-769.8,535.4-772.1,534.5-773.3,533.2z"/>
	<path class="st4" d="M-741.6,534.2v1.1h-11.2V519h10.9v1.1h-9.7v6.4h8.7v1h-8.7v6.7H-741.6z"/>
	<path class="st4" d="M-719.4,519v16.3h-1l-11.1-14.1v14.1h-1.2V519h1l11.1,14.1V519H-719.4z M-728.7,517.4h-0.8
		c0-1.4,0.8-2.3,1.9-2.3c1.4,0,2,1.6,3,1.6c0.7,0,1.2-0.6,1.2-1.5h0.8c0,1.3-0.8,2.3-1.9,2.3c-1.4,0-2-1.6-3-1.6
		C-728.2,515.9-728.7,516.5-728.7,517.4z"/>
	<path class="st4" d="M-699.1,530.7h-9.4l-2.1,4.6h-1.3l7.5-16.3h1.2l7.5,16.3h-1.3L-699.1,530.7z M-699.5,529.7l-4.3-9.4l-4.2,9.4
		H-699.5z"/>
	<path class="st4" d="M-688.1,519h6.4c5.2,0,8.6,3.4,8.6,8.1c0,4.7-3.5,8.1-8.6,8.1h-6.4V519z M-681.7,534.2c4.6,0,7.5-2.9,7.5-7.1
		c0-4.1-2.9-7.1-7.5-7.1h-5.2v14.1H-681.7z"/>
	<path class="st4" d="M-665.8,527.1c0-4.7,3.6-8.2,8.5-8.2c4.8,0,8.5,3.5,8.5,8.2c0,4.7-3.6,8.2-8.5,8.2
		C-662.2,535.4-665.8,531.8-665.8,527.1z M-650.1,527.1c0-4.1-3.1-7.2-7.2-7.2c-4.2,0-7.3,3-7.3,7.2c0,4.1,3.1,7.2,7.3,7.2
		C-653.2,534.3-650.1,531.2-650.1,527.1z"/>
	<path class="st4" d="M-628.8,535.3l-3.9-5.4c-0.5,0.1-1,0.1-1.6,0.1h-4.6v5.3h-1.2V519h5.8c4.1,0,6.6,2,6.6,5.5
		c0,2.6-1.4,4.4-3.8,5.1l4.1,5.7H-628.8z M-634.3,528.9c3.5,0,5.3-1.6,5.3-4.4c0-2.8-1.9-4.4-5.3-4.4h-4.6v8.8H-634.3z"/>
	<path class="st4" d="M-608.1,519h6.4c5.2,0,8.6,3.4,8.6,8.1c0,4.7-3.5,8.1-8.6,8.1h-6.4V519z M-601.8,534.2c4.6,0,7.5-2.9,7.5-7.1
		c0-4.1-2.9-7.1-7.5-7.1h-5.2v14.1H-601.8z"/>
	<path class="st4" d="M-573.1,534.2v1.1h-11.2V519h10.9v1.1h-9.7v6.4h8.7v1h-8.7v6.7H-573.1z"/>
	<path class="st4" d="M-538.1,535.3l0-13.9l-6.8,11.8h-0.6l-6.8-11.7v13.9h-1.2V519h1l7.3,12.6l7.3-12.6h1l0,16.3H-538.1z"/>
	<path class="st4" d="M-515.4,534.2v1.1h-11.2V519h10.9v1.1h-9.7v6.4h8.7v1h-8.7v6.7H-515.4z"/>
	<path class="st4" d="M-506.5,519h6.4c5.2,0,8.6,3.4,8.6,8.1c0,4.7-3.5,8.1-8.6,8.1h-6.4V519z M-500.1,534.2c4.6,0,7.5-2.9,7.5-7.1
		c0-4.1-2.9-7.1-7.5-7.1h-5.2v14.1H-500.1z"/>
	<path class="st4" d="M-482.6,519h1.2v16.3h-1.2V519z"/>
	<path class="st4" d="M-472.7,527.1c0-4.7,3.6-8.2,8.5-8.2c4.8,0,8.5,3.5,8.5,8.2c0,4.7-3.6,8.2-8.5,8.2
		C-469.1,535.4-472.7,531.8-472.7,527.1z M-457,527.1c0-4.1-3.1-7.2-7.2-7.2c-4.2,0-7.3,3-7.3,7.2c0,4.1,3.1,7.2,7.3,7.2
		C-460.1,534.3-457,531.2-457,527.1z"/>
	<path class="st4" d="M-448.7,533.2l0.5-0.9c1.1,1.2,3.2,2,5.4,2c3.3,0,4.7-1.4,4.7-3.2c0-4.9-10.2-2-10.2-7.9
		c0-2.3,1.8-4.3,5.8-4.3c1.8,0,3.6,0.6,4.9,1.5l-0.4,1c-1.3-0.9-3-1.4-4.5-1.4c-3.2,0-4.6,1.5-4.6,3.3c0,4.9,10.2,2,10.2,7.9
		c0,2.3-1.8,4.3-5.9,4.3C-445.2,535.4-447.5,534.5-448.7,533.2z"/>
	<path class="st4" d="M-417.6,519h1.2v16.3h-1.2V519z"/>
	<path class="st4" d="M-392.9,519v16.3h-1l-11.1-14.1v14.1h-1.2V519h1l11.1,14.1V519H-392.9z"/>
	<path class="st4" d="M-379.4,520.1h-5.9V519h12.9v1.1h-5.9v15.2h-1.2V520.1z"/>
	<path class="st4" d="M-353.6,534.2v1.1h-11.2V519h10.9v1.1h-9.7v6.4h8.7v1h-8.7v6.7H-353.6z"/>
	<path class="st4" d="M-333.3,535.3l-3.9-5.4c-0.5,0.1-1,0.1-1.6,0.1h-4.6v5.3h-1.2V519h5.8c4.1,0,6.6,2,6.6,5.5
		c0,2.6-1.4,4.4-3.8,5.1l4.1,5.7H-333.3z M-338.8,528.9c3.5,0,5.3-1.6,5.3-4.4c0-2.8-1.9-4.4-5.3-4.4h-4.6v8.8H-338.8z"/>
	<path class="st4" d="M-313.2,530.7h-9.4l-2.1,4.6h-1.3l7.5-16.3h1.2l7.5,16.3h-1.3L-313.2,530.7z M-313.6,529.7l-4.3-9.4l-4.2,9.4
		H-313.6z"/>
	<path class="st4" d="M-304,527.1c0-4.7,3.6-8.2,8.4-8.2c2.3,0,4.4,0.7,5.8,2.3l-0.7,0.8c-1.4-1.4-3.1-1.9-5-1.9
		c-4.2,0-7.3,3.1-7.3,7.2c0,4.1,3.1,7.2,7.3,7.2c1.9,0,3.6-0.6,5-2l0.7,0.8c-1.4,1.5-3.5,2.3-5.8,2.3
		C-300.4,535.4-304,531.9-304,527.1z"/>
	<path class="st4" d="M-278.3,520.1h-5.9V519h12.9v1.1h-5.9v15.2h-1.2V520.1z"/>
	<path class="st4" d="M-263.7,519h1.2v16.3h-1.2V519z"/>
	<path class="st4" d="M-239.4,519l-7.2,16.3h-1.2l-7.2-16.3h1.3l6.6,14.7l6.6-14.7H-239.4z"/>
	<path class="st4" d="M-233.8,527.1c0-4.7,3.6-8.2,8.5-8.2c4.8,0,8.5,3.5,8.5,8.2c0,4.7-3.6,8.2-8.5,8.2
		C-230.2,535.4-233.8,531.8-233.8,527.1z M-218.1,527.1c0-4.1-3.1-7.2-7.2-7.2c-4.2,0-7.3,3-7.3,7.2c0,4.1,3.1,7.2,7.3,7.2
		C-221.2,534.3-218.1,531.2-218.1,527.1z"/>
	<path class="st4" d="M-209.8,533.2l0.5-0.9c1.1,1.2,3.2,2,5.4,2c3.3,0,4.7-1.4,4.7-3.2c0-4.9-10.2-2-10.2-7.9
		c0-2.3,1.8-4.3,5.8-4.3c1.8,0,3.6,0.6,4.9,1.5l-0.4,1c-1.3-0.9-3-1.4-4.5-1.4c-3.2,0-4.6,1.5-4.6,3.3c0,4.9,10.2,2,10.2,7.9
		c0,2.3-1.8,4.3-5.9,4.3C-206.3,535.4-208.6,534.5-209.8,533.2z"/>
</g>
<text transform="matrix(1 0 0 1 -764.4979 742.4908)" class="st4" style="font-family:'Montserrat-Light'; font-size:19px; letter-spacing:3;">diseñador de medios interactivos</text>
<g class="st2">
	<path class="st3" d="M605.8,240.3L590,212.8l-15.8-27.4h0L558.3,158l-15.8,27.4h0v0l-15.8,27.4h0l-15.8,27.4h-31.7l15.8-27.4h0
		l15.8-27.4l15.8-27.4h95.1l-15.8-27.4l-31.7-54.9v0l-15.8-27.4l-15.8,27.4l-15.8,27.4l-15.8,27.4h-95.1l-15.8,27.4v0h95.1
		l-15.8,27.4l-15.8,27.4v0l-15.8,27.4v0h-95.1l15.8,27.4l15.8,27.4l15.8,27.4v0l15.8,27.4l15.8-27.4l15.8-27.4v0l15.8-27.4h31.7
		l-15.8,27.4l-15.8,27.4l-15.8,27.4l-15.8,27.4l15.8,27.4h0l15.8-27.4h0v0l15.8-27.4l15.8-27.4h0v0l15.8-27.4l15.8-27.4h95.1
		L605.8,240.3L605.8,240.3z M558.3,103.1L558.3,103.1l15.8,27.4h-31.7L558.3,103.1z M415.7,295.2l-15.8-27.4h31.7L415.7,295.2z
		 M542.5,240.3l15.8-27.4l15.8,27.4H542.5z"/>
</g>
<g>
	<path class="st4" d="M98.7,452.3c0,7.1-5.1,11.3-13.6,11.3h-9.6v11h-2.5V441h12.1C93.6,441,98.7,445.2,98.7,452.3z M96.2,452.3
		c0-5.8-3.8-9.1-11.1-9.1h-9.6v18.2h9.6C92.3,461.4,96.2,458.1,96.2,452.3z"/>
	<path class="st4" d="M159.7,465.1h-19.5l-4.3,9.5h-2.6l15.5-33.6h2.5l15.5,33.6h-2.6L159.7,465.1z M158.8,463.1l-8.8-19.4
		l-8.8,19.4H158.8z"/>
	<path class="st4" d="M233.8,465.7c0,5.7-4.1,8.9-12.4,8.9h-15V441h14c7.2,0,11.6,3,11.6,8.6c0,4-2.3,6.6-5.6,7.7
		C231.2,458.2,233.8,461.1,233.8,465.7z M208.9,443.1v13.4h11.5c5.8,0,9.2-2.3,9.2-6.7c0-4.4-3.4-6.7-9.2-6.7H208.9z M231.4,465.5
		c0-4.8-3.5-6.9-10-6.9h-12.5v13.9h12.5C227.9,472.5,231.4,470.4,231.4,465.5z"/>
	<path class="st4" d="M276.2,441h2.5v31.4h19.4v2.2h-21.8V441z"/>
	<path class="st4" d="M334.1,457.8c0-9.8,7.5-17.1,17.5-17.1c10,0,17.5,7.3,17.5,17.1c0,9.8-7.5,17.1-17.5,17.1
		C341.6,474.9,334.1,467.5,334.1,457.8z M366.6,457.8c0-8.5-6.4-14.8-15-14.8c-8.6,0-15,6.3-15,14.8c0,8.5,6.4,14.8,15,14.8
		C360.2,472.6,366.6,466.3,366.6,457.8z"/>
	<path class="st4" d="M411.3,438.9h2.3v45h-2.3V438.9z"/>
	<path class="st4" d="M482.9,457.9h2.4v12.6c-3,2.9-7.4,4.3-12,4.3c-10.1,0-17.6-7.3-17.6-17.1c0-9.8,7.5-17.1,17.6-17.1
		c4.9,0,9.1,1.5,12.1,4.6l-1.5,1.6c-2.9-2.9-6.4-4-10.5-4c-8.7,0-15.2,6.3-15.2,14.8c0,8.4,6.5,14.8,15.2,14.8
		c3.6,0,6.8-0.9,9.6-3.1V457.9z"/>
	<path class="st4" d="M550.5,465.1H531l-4.3,9.5h-2.6l15.5-33.6h2.5l15.5,33.6h-2.6L550.5,465.1z M549.6,463.1l-8.8-19.4l-8.8,19.4
		H549.6z"/>
	<path class="st4" d="M597.2,441h2.5v31.4H619v2.2h-21.8V441z"/>
	<path class="st4" d="M659,441h2.5v31.4h19.4v2.2H659V441z"/>
	<path class="st4" d="M744,472.4v2.2h-23.2V441h22.5v2.2h-20v13.3h17.9v2.2h-17.9v13.8H744z"/>
	<path class="st4" d="M810.4,457.9h2.4v12.6c-3,2.9-7.4,4.3-12,4.3c-10.1,0-17.6-7.3-17.6-17.1c0-9.8,7.5-17.1,17.6-17.1
		c4.9,0,9.1,1.5,12.1,4.6l-1.5,1.6c-2.9-2.9-6.4-4-10.5-4c-8.7,0-15.2,6.3-15.2,14.8c0,8.4,6.5,14.8,15.2,14.8
		c3.6,0,6.8-0.9,9.6-3.1V457.9z"/>
	<path class="st4" d="M853.9,457.8c0-9.8,7.5-17.1,17.5-17.1c10,0,17.5,7.3,17.5,17.1c0,9.8-7.5,17.1-17.5,17.1
		C861.4,474.9,853.9,467.5,853.9,457.8z M886.4,457.8c0-8.5-6.4-14.8-15-14.8c-8.6,0-15,6.3-15,14.8c0,8.5,6.4,14.8,15,14.8
		C880,472.6,886.4,466.3,886.4,457.8z"/>
</g>
<path class="st13" d="M504.8,229.8h-31.7l47.5-82.3l95.1,0L552.3,37.7L504.8,120h-95.1l-15.8,27.4l95.1,0l-47.5,82.3l-95.1,0
	l63.4,109.8l47.5-82.3l31.7,0L425.5,367l15.8,27.4l79.2-137.2l95.1,0l-63.4-109.8L504.8,229.8z M552.3,92.6l15.8,27.4h-31.7
	L552.3,92.6z M409.7,284.7l-15.8-27.4h31.7L409.7,284.7z M536.5,229.8l15.8-27.4l15.8,27.4H536.5z"/>
<polygon class="st20" points="425.5,257.2 457.2,257.2 450.4,269.1 418.7,269.1 "/>
<polygon class="st20" points="488.9,257.2 520.6,257.2 513.7,269.1 482,269.1 "/>
<polygon class="st20" points="488.9,147.4 520.6,147.4 513.7,159.4 482,159.4 "/>
<g>
	<path class="st4" d="M175,519h6.4c5.2,0,8.6,3.4,8.6,8.1c0,4.7-3.5,8.1-8.6,8.1H175V519z M181.4,534.2c4.6,0,7.5-2.9,7.5-7.1
		c0-4.1-2.9-7.1-7.5-7.1h-5.2v14.1H181.4z"/>
	<path class="st4" d="M198.9,519h1.2v16.3h-1.2V519z"/>
	<path class="st4" d="M208.7,533.2l0.5-0.9c1.1,1.2,3.2,2,5.4,2c3.3,0,4.7-1.4,4.7-3.2c0-4.9-10.2-2-10.2-7.9c0-2.3,1.8-4.3,5.8-4.3
		c1.8,0,3.6,0.6,4.9,1.5l-0.4,1c-1.3-0.9-3-1.4-4.5-1.4c-3.2,0-4.6,1.5-4.6,3.3c0,4.9,10.2,2,10.2,7.9c0,2.3-1.8,4.3-5.9,4.3
		C212.2,535.4,209.9,534.5,208.7,533.2z"/>
	<path class="st4" d="M240.4,534.2v1.1h-11.2V519H240v1.1h-9.7v6.4h8.7v1h-8.7v6.7H240.4z"/>
	<path class="st4" d="M262.6,519v16.3h-1l-11.1-14.1v14.1h-1.2V519h1l11.1,14.1V519H262.6z M253.3,517.4h-0.8c0-1.4,0.8-2.3,1.9-2.3
		c1.4,0,2,1.6,3,1.6c0.7,0,1.2-0.6,1.2-1.5h0.8c0,1.3-0.8,2.3-1.9,2.3c-1.4,0-2-1.6-3-1.6C253.8,515.9,253.3,516.5,253.3,517.4z"/>
	<path class="st4" d="M282.9,530.7h-9.4l-2.1,4.6h-1.3l7.5-16.3h1.2l7.5,16.3H285L282.9,530.7z M282.5,529.7l-4.3-9.4l-4.2,9.4
		H282.5z"/>
	<path class="st4" d="M293.9,519h6.4c5.2,0,8.6,3.4,8.6,8.1c0,4.7-3.5,8.1-8.6,8.1h-6.4V519z M300.3,534.2c4.6,0,7.5-2.9,7.5-7.1
		c0-4.1-2.9-7.1-7.5-7.1h-5.2v14.1H300.3z"/>
	<path class="st4" d="M316.2,527.1c0-4.7,3.6-8.2,8.5-8.2c4.8,0,8.5,3.5,8.5,8.2c0,4.7-3.6,8.2-8.5,8.2
		C319.8,535.4,316.2,531.8,316.2,527.1z M331.9,527.1c0-4.1-3.1-7.2-7.2-7.2c-4.2,0-7.3,3-7.3,7.2c0,4.1,3.1,7.2,7.3,7.2
		C328.8,534.3,331.9,531.2,331.9,527.1z"/>
	<path class="st4" d="M353.2,535.3l-3.9-5.4c-0.5,0.1-1,0.1-1.6,0.1h-4.6v5.3h-1.2V519h5.8c4.1,0,6.6,2,6.6,5.5
		c0,2.6-1.4,4.4-3.8,5.1l4.1,5.7H353.2z M347.7,528.9c3.5,0,5.3-1.6,5.3-4.4c0-2.8-1.9-4.4-5.3-4.4h-4.6v8.8H347.7z"/>
	<path class="st4" d="M373.9,519h6.4c5.2,0,8.6,3.4,8.6,8.1c0,4.7-3.5,8.1-8.6,8.1h-6.4V519z M380.2,534.2c4.6,0,7.5-2.9,7.5-7.1
		c0-4.1-2.9-7.1-7.5-7.1H375v14.1H380.2z"/>
	<path class="st4" d="M408.9,534.2v1.1h-11.2V519h10.9v1.1h-9.7v6.4h8.7v1h-8.7v6.7H408.9z"/>
	<path class="st4" d="M443.9,535.3l0-13.9l-6.8,11.8h-0.6l-6.8-11.7v13.9h-1.2V519h1l7.3,12.6L444,519h1l0,16.3H443.9z"/>
	<path class="st4" d="M466.6,534.2v1.1h-11.2V519h10.9v1.1h-9.7v6.4h8.7v1h-8.7v6.7H466.6z"/>
	<path class="st4" d="M475.5,519h6.4c5.2,0,8.6,3.4,8.6,8.1c0,4.7-3.5,8.1-8.6,8.1h-6.4V519z M481.9,534.2c4.6,0,7.5-2.9,7.5-7.1
		c0-4.1-2.9-7.1-7.5-7.1h-5.2v14.1H481.9z"/>
	<path class="st4" d="M499.4,519h1.2v16.3h-1.2V519z"/>
	<path class="st4" d="M509.3,527.1c0-4.7,3.6-8.2,8.5-8.2c4.8,0,8.5,3.5,8.5,8.2c0,4.7-3.6,8.2-8.5,8.2
		C512.9,535.4,509.3,531.8,509.3,527.1z M525,527.1c0-4.1-3.1-7.2-7.2-7.2c-4.2,0-7.3,3-7.3,7.2c0,4.1,3.1,7.2,7.3,7.2
		C521.9,534.3,525,531.2,525,527.1z"/>
	<path class="st4" d="M533.3,533.2l0.5-0.9c1.1,1.2,3.2,2,5.4,2c3.3,0,4.7-1.4,4.7-3.2c0-4.9-10.2-2-10.2-7.9c0-2.3,1.8-4.3,5.8-4.3
		c1.8,0,3.6,0.6,4.9,1.5l-0.4,1c-1.3-0.9-3-1.4-4.5-1.4c-3.2,0-4.6,1.5-4.6,3.3c0,4.9,10.2,2,10.2,7.9c0,2.3-1.8,4.3-5.9,4.3
		C536.8,535.4,534.5,534.5,533.3,533.2z"/>
	<path class="st4" d="M564.4,519h1.2v16.3h-1.2V519z"/>
	<path class="st4" d="M589.1,519v16.3h-1l-11.1-14.1v14.1h-1.2V519h1l11.1,14.1V519H589.1z"/>
	<path class="st4" d="M602.6,520.1h-5.9V519h12.9v1.1h-5.9v15.2h-1.2V520.1z"/>
	<path class="st4" d="M628.4,534.2v1.1h-11.2V519H628v1.1h-9.7v6.4h8.7v1h-8.7v6.7H628.4z"/>
	<path class="st4" d="M648.7,535.3l-3.9-5.4c-0.5,0.1-1,0.1-1.6,0.1h-4.6v5.3h-1.2V519h5.8c4.1,0,6.6,2,6.6,5.5
		c0,2.6-1.4,4.4-3.8,5.1l4.1,5.7H648.7z M643.2,528.9c3.5,0,5.3-1.6,5.3-4.4c0-2.8-1.9-4.4-5.3-4.4h-4.6v8.8H643.2z"/>
	<path class="st4" d="M668.8,530.7h-9.4l-2.1,4.6H656l7.5-16.3h1.2l7.5,16.3h-1.3L668.8,530.7z M668.4,529.7l-4.3-9.4l-4.2,9.4
		H668.4z"/>
	<path class="st4" d="M678,527.1c0-4.7,3.6-8.2,8.4-8.2c2.3,0,4.4,0.7,5.8,2.3l-0.7,0.8c-1.4-1.4-3.1-1.9-5-1.9
		c-4.2,0-7.3,3.1-7.3,7.2c0,4.1,3.1,7.2,7.3,7.2c1.9,0,3.6-0.6,5-2l0.7,0.8c-1.4,1.5-3.5,2.3-5.8,2.3
		C681.6,535.4,678,531.9,678,527.1z"/>
	<path class="st4" d="M703.7,520.1h-5.9V519h12.9v1.1h-5.9v15.2h-1.2V520.1z"/>
	<path class="st4" d="M718.3,519h1.2v16.3h-1.2V519z"/>
	<path class="st4" d="M742.6,519l-7.2,16.3h-1.2l-7.2-16.3h1.3l6.6,14.7l6.6-14.7H742.6z"/>
	<path class="st4" d="M748.2,527.1c0-4.7,3.6-8.2,8.5-8.2c4.8,0,8.5,3.5,8.5,8.2c0,4.7-3.6,8.2-8.5,8.2
		C751.8,535.4,748.2,531.8,748.2,527.1z M763.9,527.1c0-4.1-3.1-7.2-7.2-7.2c-4.2,0-7.3,3-7.3,7.2c0,4.1,3.1,7.2,7.3,7.2
		C760.8,534.3,763.9,531.2,763.9,527.1z"/>
	<path class="st4" d="M772.2,533.2l0.5-0.9c1.1,1.2,3.2,2,5.4,2c3.3,0,4.7-1.4,4.7-3.2c0-4.9-10.2-2-10.2-7.9c0-2.3,1.8-4.3,5.8-4.3
		c1.8,0,3.6,0.6,4.9,1.5l-0.4,1c-1.3-0.9-3-1.4-4.5-1.4c-3.2,0-4.6,1.5-4.6,3.3c0,4.9,10.2,2,10.2,7.9c0,2.3-1.8,4.3-5.9,4.3
		C775.7,535.4,773.4,534.5,772.2,533.2z"/>
</g>
<line class="st10" x1="129" y1="106.3" x2="175" y2="179"/>
<line class="st29" x1="182.6" y1="130.5" x2="228.6" y2="203.2"/>
</svg>
